<?xml version="1.0" encoding="UTF-8"?>
<svg version="1.1" xmlns="http://www.w3.org/2000/svg" width="82" height="96">
<path d="M0 0 C27.06 0 54.12 0 82 0 C82 31.68 82 63.36 82 96 C54.94 96 27.88 96 0 96 C0 64.32 0 32.64 0 0 Z " fill="#FBFDFC" transform="translate(0,0)"/>
<path d="M0 0 C5.53846154 3.07692308 5.53846154 3.07692308 7 6 C7.11034806 7.60178012 7.15911269 9.20799961 7.17700195 10.81347656 C7.18983719 11.8150177 7.20267242 12.81655884 7.21589661 13.84844971 C7.22328354 14.93486755 7.23067047 16.0212854 7.23828125 17.140625 C7.246353 18.25556335 7.25442474 19.37050171 7.26274109 20.51922607 C7.27659059 22.88308147 7.28730885 25.24695694 7.29516602 27.61083984 C7.31236385 31.22141604 7.35624186 34.83107325 7.40039062 38.44140625 C7.41051865 40.73697243 7.41903441 43.0325464 7.42578125 45.328125 C7.44328934 46.40644592 7.46079742 47.48476685 7.47883606 48.59576416 C7.46123725 54.69640192 7.14730132 58.38899227 3 63 C0.72500225 64.13749887 -0.84236711 64.29866796 -3.375 64.4375 C-4.14585938 64.49808594 -4.91671875 64.55867188 -5.7109375 64.62109375 C-8.57006309 63.84532418 -9.59755924 62.52064726 -11.15222168 60.05436707 C-12.98572286 55.61136073 -12.58750556 50.7293441 -12.56640625 45.99609375 C-12.57260483 44.84005142 -12.57880341 43.68400909 -12.58518982 42.49293518 C-12.5922791 40.05462484 -12.58912968 37.61626601 -12.57641602 35.17797852 C-12.56253358 31.44652486 -12.59665911 27.71757082 -12.63476562 23.98632812 C-12.63571668 21.61458272 -12.63385873 19.24283418 -12.62890625 16.87109375 C-12.64216446 15.7564122 -12.65542267 14.64173065 -12.66908264 13.49327087 C-12.57643392 5.79523785 -12.57643392 5.79523785 -9.67553711 1.79321289 C-6.1183202 -0.59092418 -4.21024526 -0.66477557 0 0 Z " fill="#22CEC8" transform="translate(71,19)"/>
<path d="M0 0 C2.68725586 1.77929688 2.68725586 1.77929688 5 5 C5.7396798 8.96732443 5.67665547 12.88044512 5.62890625 16.90625 C5.63131821 18.06370728 5.63373016 19.22116455 5.63621521 20.41369629 C5.6352368 22.85802643 5.62184499 25.30237874 5.59692383 27.74658203 C5.56262135 31.48676881 5.57626622 35.22459238 5.59570312 38.96484375 C5.58880455 41.34115589 5.57913208 43.71746193 5.56640625 46.09375 C5.57136612 47.2115686 5.57632599 48.32938721 5.58143616 49.4810791 C5.46400109 57.22723806 5.46400109 57.22723806 3.08959961 61.18164062 C-0.2233853 64.06458392 -2.62142305 64.33703986 -7.02734375 64.2890625 C-9 64 -9 64 -11.4375 62.1875 C-13.8490891 58.81127527 -14.13209284 56.09113842 -14.17700195 52.05712891 C-14.18983719 51.05243561 -14.20267242 50.04774231 -14.21589661 49.01260376 C-14.22328354 47.92821014 -14.23067047 46.84381653 -14.23828125 45.7265625 C-14.246353 44.61066742 -14.25442474 43.49477234 -14.26274109 42.34506226 C-14.27657617 39.98298698 -14.2873009 37.62089176 -14.29516602 35.25878906 C-14.31239935 31.64610032 -14.35629434 28.03432178 -14.40039062 24.421875 C-14.41051582 22.1276109 -14.41903247 19.83333902 -14.42578125 17.5390625 C-14.44328934 16.45871735 -14.46079742 15.37837219 -14.47883606 14.26528931 C-14.45719069 6.7852294 -14.45719069 6.7852294 -12.16088867 2.84130859 C-8.37807622 -0.38205278 -4.82313152 -0.49894464 0 0 Z " fill="#1F72C8" transform="translate(27,19)"/>
<path d="M0 0 C3.47839623 1.06930806 6.02147926 2.76118176 8.16015625 5.6640625 C9.00721803 8.85799889 8.95586469 11.87754574 8.84765625 15.1640625 C8.86248047 16.00582031 8.87730469 16.84757812 8.89257812 17.71484375 C8.83356975 22.12311613 8.58724054 24.10705845 5.8359375 27.6953125 C2.4736163 30.16919554 0.32209696 30.6640625 -3.83984375 30.6640625 C-7.70871421 29.03053942 -9.26156713 27.48522191 -10.83984375 23.6640625 C-11.28865818 20.69473484 -11.25565671 17.72660314 -11.27734375 14.7265625 C-11.31021484 13.92798828 -11.34308594 13.12941406 -11.37695312 12.30664062 C-11.41630375 7.98880408 -11.23610045 6.18991685 -8.55859375 2.63671875 C-5.62700056 0.50962886 -3.61204368 0.07416927 0 0 Z " fill="#C7D711" transform="translate(46.83984375,4.3359375)"/>
<path d="M0 0 C2.6581385 2.0022843 4.66854601 3.57480215 5.44702148 6.92211914 C5.60099961 9.13545866 5.58423035 11.28321035 5.5 13.5 C5.50386719 14.61955078 5.50386719 14.61955078 5.5078125 15.76171875 C5.4202934 20.70654815 4.64855869 24.35144131 1 28 C-1.36328125 28.2734375 -1.36328125 28.2734375 -4.3125 28.375 C-5.76076172 28.44847656 -5.76076172 28.44847656 -7.23828125 28.5234375 C-10 28 -10 28 -12.328125 26.0078125 C-14.54059155 22.02744044 -14.55728468 18.97453723 -14.4375 14.5 C-14.44458984 13.75363281 -14.45167969 13.00726563 -14.45898438 12.23828125 C-14.40653173 7.67893586 -13.87166416 4.72961814 -11 1 C-7.43954779 -1.79749817 -4.21263041 -1.10858695 0 0 Z " fill="#C7D70F" transform="translate(50,68)"/>
<path d="M0 0 C3.82838766 0.91791751 5.43621117 2.46342703 8.00390625 5.48046875 C8.77543611 9.80103596 8.53138491 11.67166814 6.12890625 15.35546875 C3.17948808 18.30488692 2.41322987 18.44745878 -1.87109375 18.79296875 C-5.0722305 18.76392032 -5.78611338 18.64199211 -8.43359375 16.60546875 C-11.24248225 12.78538039 -11.47999479 10.23882896 -10.99609375 5.48046875 C-8.02846044 1.12175733 -5.37317276 -0.37724363 0 0 Z " fill="#F98630" transform="translate(46.99609375,41.51953125)"/>
<path d="M0 0 C2.5 0.125 2.5 0.125 3.5 1.125 C3.625 4.125 3.625 4.125 3.5 7.125 C2.5 8.125 2.5 8.125 -0.0625 8.1875 C-0.866875 8.166875 -1.67125 8.14625 -2.5 8.125 C-2.88063221 5.7989143 -3.21269945 3.46444736 -3.5 1.125 C-2.5 0.125 -2.5 0.125 0 0 Z " fill="#EAFAF9" transform="translate(68.5,34.875)"/>
<path d="M0 0 C0.33 0.66 0.66 1.32 1 2 C-0.0725 2.103125 -1.145 2.20625 -2.25 2.3125 C-5.85820872 2.97400493 -7.36395023 3.57483421 -10 6 C-10 5.01 -10 4.02 -10 3 C-6.62637846 0.39749195 -4.23092172 -0.36265043 0 0 Z " fill="#CAD91D" transform="translate(48,67)"/>
<path d="M0 0 C0.99 0 1.98 0 3 0 C3 1.65 3 3.3 3 5 C1.68 5 0.36 5 -1 5 C-0.67 3.35 -0.34 1.7 0 0 Z " fill="#D9F6F5" transform="translate(70,46)"/>
</svg>
